PathFileType	4	(X/Y/Z)	/Users/itak/Documents/Research/Walk-IL/dataset/trc/00444_00167.trc
DataRate	CameraRate	NumFrames	NumMarkers	Units	OrigDataRate	OrigDataStartFrame	OrigNumFrames
100.000000	100.000000	4	53	mm	100.000000	135	542
Frame#	Time	RPSI			LPSI			L3			STRN			T10			C7			CLAV			RBAK			LBAK			LSHO			LUPA			LAEL			LAOL			LWTS			LWPS			LFRA			LIFD			LHPS			LHTS			RSHO			RUPA			RAEL			RAOL			RWTS			RWPS			RFRA			RIFD			RHTS			RHPS			RBHD			LFHD			RFHD			LBHD			LHIP			RHIP			RASI			LASI			LKNE			LTHI			LANK			LTIP			LTOE			LMT1			LMT5			LHEE			RKNE			RTHI			RANK			RTIP			RTOE			RMT1			RMT5			RHEE			
		X1	Y1	Z1	X2	Y2	Z2	X3	Y3	Z3	X4	Y4	Z4	X5	Y5	Z5	X6	Y6	Z6	X7	Y7	Z7	X8	Y8	Z8	X9	Y9	Z9	X10	Y10	Z10	X11	Y11	Z11	X12	Y12	Z12	X13	Y13	Z13	X14	Y14	Z14	X15	Y15	Z15	X16	Y16	Z16	X17	Y17	Z17	X18	Y18	Z18	X19	Y19	Z19	X20	Y20	Z20	X21	Y21	Z21	X22	Y22	Z22	X23	Y23	Z23	X24	Y24	Z24	X25	Y25	Z25	X26	Y26	Z26	X27	Y27	Z27	X28	Y28	Z28	X29	Y29	Z29	X30	Y30	Z30	X31	Y31	Z31	X32	Y32	Z32	X33	Y33	Z33	X34	Y34	Z34	X35	Y35	Z35	X36	Y36	Z36	X37	Y37	Z37	X38	Y38	Z38	X39	Y39	Z39	X40	Y40	Z40	X41	Y41	Z41	X42	Y42	Z42	X43	Y43	Z43	X44	Y44	Z44	X45	Y45	Z45	X46	Y46	Z46	X47	Y47	Z47	X48	Y48	Z48	X49	Y49	Z49	X50	Y50	Z50	X51	Y51	Z51	X52	Y52	Z52	X53	Y53	Z53	

136	1.35	-1177.682006835938	972.0924072265625	-402.2946472167969	-1108.884643554688	968.9463500976562	-525.7789306640625	-1139.927368164062	1060.652587890625	-446.1784362792969	-895.4424438476562	1254.765380859375	-341.9269104003906	-1159.789184570312	1184.13330078125	-460.9513244628906	-1104.439697265625	1452.374755859375	-424.1400146484375	-927.9208984375	1368.308471679688	-362.6758422851562	-1201.51806640625	1335.005981445312	-361.3193969726562	-1093.576293945312	1404.892578125	-527.9694213867188	-964.8976440429688	1424.181518554688	-558.1294555664062	-934.6395263671875	1306.770874023438	-654.13525390625	-897.3369140625	1093.139282226562	-680.818603515625	-996.5628662109375	1075.357788085938	-652.8541870117188	-831.8057250976562	894.3923950195312	-606.74462890625	-849.749267578125	877.79443359375	-677.02880859375	-870.4306030273438	1006.8994140625	-681.3571166992188	-824.0203857421875	725.5094604492188	-606.9363403320312	-840.9087524414062	796.699951171875	-672.2192993164062	-811.3894653320312	805.0923461914062	-607.4869384765625	-1103.27685546875	1424.891479492188	-247.2991027832031	-1147.7314453125	1363.401489257812	-182.2604064941406	-1149.810913085938	1077.56591796875	-119.0059432983398	-1188.638793945312	1058.48974609375	-171.2310943603516	-1032.283081054688	880.9056396484375	-129.5823211669922	-1111.188842773438	862.7682495117188	-93.15718078613281	-1146.641357421875	1019.384704589844	-107.3894729614258	-1027.1357421875	721.7154541015625	-118.2035980224609	-1017.398193359375	781.692626953125	-111.1709899902344	-1089.802612304688	777.1148681640625	-87.99167633056641	-1072.114379882812	1645.777465820312	-321.315673828125	-878.2313232421875	1664.812377929688	-392.2028503417969	-942.1935424804688	1665.512451171875	-278.127685546875	-999.4895629882812	1649.199096679688	-483.9932861328125	-939.2330322265625	858.7086181640625	-564.8289184570312	-1147.81884765625	864.7583618164062	-226.9926605224609	-1022.8349609375	901.0990600585938	-226.8107757568359	-885.2337646484375	893.3194580078125	-446.3026428222656	-985.4332885742188	438.4542846679688	-541.0477905273438	-941.07958984375	587.5135498046875	-545.4820556640625	-1061.510498046875	33.48268890380859	-572.361083984375	-995.9898681640625	288.8322143554688	-555.4747924804688	-902.0859985351562	45.37722778320312	-400.7896728515625	-980.7539672851562	50.15306091308594	-412.3880920410156	-925.2871704101562	45.63713836669922	-511.9591674804688	-1134.006591796875	37.95254516601562	-557.4837036132812	-1135.7578125	466.1019287109375	-254.0802307128906	-1119.95361328125	727.1541748046875	-201.7882232666016	-1178.171875	43.02641677856445	-283.571044921875	-1148.7646484375	322.4607849121094	-247.0102691650391	-964.818359375	49.62376022338867	-241.3042297363281	-1007.320617675781	55.63900756835938	-296.84033203125	-1068.5556640625	47.41578674316406	-205.4680786132812	-1220.103393554688	34.86696624755859	-351.7803039550781	
137	1.36	-1177.242309570312	972.1572875976562	-402.4905090332031	-1108.44287109375	969.0079345703125	-525.9105834960938	-1139.43115234375	1060.675048828125	-446.2611389160156	-894.8399658203125	1254.692260742188	-341.9852905273438	-1159.222900390625	1184.15576171875	-461.1063232421875	-1103.728759765625	1452.364135742188	-424.3362426757812	-927.281494140625	1368.226440429688	-362.8065795898438	-1200.894653320312	1335.056884765625	-361.5099487304688	-1092.87109375	1404.831298828125	-528.1351318359375	-964.1712646484375	1424.085083007812	-558.2731323242188	-933.9855346679688	1306.621459960938	-654.26123046875	-896.8075561523438	1092.99169921875	-680.970703125	-995.692626953125	1075.0537109375	-652.7841796875	-831.2608642578125	894.2381591796875	-606.8794555664062	-849.1965942382812	877.618408203125	-677.1445922851562	-869.8842163085938	1006.754272460938	-681.4886474609375	-823.6154174804688	725.2841186523438	-607.1677856445312	-840.4124755859375	796.5418701171875	-672.403076171875	-810.989990234375	804.7952880859375	-607.656005859375	-1102.634399414062	1424.9296875	-247.4654998779297	-1147.154174804688	1363.457153320312	-182.4678497314453	-1149.48876953125	1077.602416992188	-119.2200164794922	-1188.286987304688	1058.566162109375	-171.4990386962891	-1032.085815429688	880.8477783203125	-129.8256225585938	-1111.059936523438	862.7669067382812	-93.46215057373047	-1146.33447265625	1019.413024902344	-107.6897125244141	-1027.082153320312	721.6454467773438	-118.4301681518555	-1017.365966796875	781.6343383789062	-111.3179473876953	-1089.713745117188	777.0961303710938	-88.30035400390625	-1071.308227539062	1645.782470703125	-321.5343017578125	-877.4830322265625	1664.73876953125	-392.49658203125	-941.39501953125	1665.521118164062	-278.3507385253906	-998.7642211914062	1649.11328125	-484.2637023925781	-938.7425537109375	858.6146240234375	-564.8092041015625	-1147.572631835938	864.7669067382812	-227.1003570556641	-1022.722412109375	901.1070556640625	-226.8432312011719	-884.89892578125	893.2354736328125	-446.2752990722656	-985.252685546875	438.4198913574219	-541.10400390625	-940.7470703125	587.4972534179688	-545.4196166992188	-1061.4814453125	33.49821853637695	-572.35107421875	-995.6781616210938	288.859375	-555.40771484375	-902.0728149414062	45.35182952880859	-400.7764892578125	-980.7499389648438	50.14930725097656	-412.3810119628906	-925.2710571289062	45.63702392578125	-511.9493103027344	-1133.993896484375	37.97522354125977	-557.4896850585938	-1135.630737304688	466.1379699707031	-254.1251525878906	-1119.781860351562	727.1630859375	-201.85107421875	-1178.1689453125	43.0387077331543	-283.5733642578125	-1148.676513671875	322.4742736816406	-247.0853118896484	-964.8162841796875	49.62347793579102	-241.3054351806641	-1007.312927246094	55.637451171875	-296.8408508300781	-1068.58447265625	47.40846633911133	-205.4573059082031	-1220.086181640625	34.87506866455078	-351.7974853515625	
138	1.37	-1176.790893554688	972.218994140625	-402.70703125	-1108.009887695312	969.0680541992188	-526.0349731445312	-1138.936767578125	1060.706176757812	-446.3562316894531	-894.2328491210938	1254.619140625	-342.0439758300781	-1158.639404296875	1184.19140625	-461.2761535644531	-1102.992553710938	1452.360595703125	-424.5211791992188	-926.6273193359375	1368.148559570312	-362.9146423339844	-1200.241577148438	1335.1201171875	-361.6985778808594	-1092.143432617188	1404.781127929688	-528.2924194335938	-963.42578125	1423.997436523438	-558.407470703125	-933.2879638671875	1306.484252929688	-654.38427734375	-896.2313232421875	1092.860473632812	-681.1311645507812	-994.78515625	1074.732177734375	-652.7030639648438	-830.7124633789062	894.0862426757812	-607.0165405273438	-848.6441650390625	877.4454345703125	-677.2857666015625	-869.319580078125	1006.615173339844	-681.6316528320312	-823.2329711914062	725.0520629882812	-607.4083862304688	-839.94921875	796.40185546875	-672.6099853515625	-810.5957641601562	804.503173828125	-607.8690185546875	-1101.956298828125	1424.966430664062	-247.6269683837891	-1146.541137695312	1363.5234375	-182.6623382568359	-1149.135375976562	1077.646606445312	-119.4375076293945	-1187.9208984375	1058.656372070312	-171.7418518066406	-1031.88427734375	880.7755737304688	-130.0807342529297	-1110.912963867188	862.75830078125	-93.77687072753906	-1145.996215820312	1019.450866699219	-107.9980926513672	-1027.036376953125	721.5563354492188	-118.7157211303711	-1017.3193359375	781.5556640625	-111.5312271118164	-1089.64599609375	777.0779418945312	-88.60440063476562	-1070.49755859375	1645.791259765625	-321.7652587890625	-876.6991577148438	1664.660522460938	-392.7787170410156	-940.562744140625	1665.521362304688	-278.5729064941406	-998.00341796875	1649.024291992188	-484.5270385742188	-938.2401733398438	858.5134887695312	-564.8204345703125	-1147.330810546875	864.7733154296875	-227.2203063964844	-1022.580627441406	901.1158447265625	-226.8759765625	-884.5730590820312	893.1421508789062	-446.2784118652344	-985.0869140625	438.383056640625	-541.1610717773438	-940.4420776367188	587.4768676757812	-545.3612670898438	-1061.463256835938	33.50706481933594	-572.3468017578125	-995.3641967773438	288.8993835449219	-555.3468017578125	-902.062744140625	45.32905578613281	-400.7643127441406	-980.7479858398438	50.14540863037109	-412.3745727539062	-925.2498779296875	45.63946151733398	-511.9451599121094	-1133.982177734375	37.99438095092773	-557.4920654296875	-1135.497192382812	466.1732177734375	-254.1754302978516	-1119.599853515625	727.1689453125	-201.9257507324219	-1178.166015625	43.05043792724609	-283.5753784179688	-1148.581665039062	322.4914245605469	-247.1669006347656	-964.8156127929688	49.62405776977539	-241.3049163818359	-1007.305603027344	55.63494491577148	-296.8416442871094	-1068.614624023438	47.39969253540039	-205.4485931396484	-1220.067138671875	34.88117980957031	-351.8182373046875	
139	1.38	-1176.337768554688	972.27685546875	-402.9283142089844	-1107.58447265625	969.1250610351562	-526.1553344726562	-1138.442016601562	1060.744384765625	-446.47119140625	-893.6165161132812	1254.54150390625	-342.1100158691406	-1158.037231445312	1184.239501953125	-461.458984375	-1102.23046875	1452.365234375	-424.6916198730469	-925.954345703125	1368.071655273438	-363.0020446777344	-1199.55810546875	1335.197998046875	-361.8869018554688	-1091.392822265625	1404.744506835938	-528.4417724609375	-962.661376953125	1423.914916992188	-558.5330200195312	-932.546142578125	1306.359497070312	-654.5022583007812	-895.6121215820312	1092.742553710938	-681.2905883789062	-993.9202880859375	1074.456787109375	-652.6622314453125	-830.1563110351562	893.932861328125	-607.1575927734375	-848.096923828125	877.2783813476562	-677.4496459960938	-868.7359619140625	1006.480041503906	-681.7808837890625	-822.8665161132812	724.8209838867188	-607.6525268554688	-839.5065307617188	796.2782592773438	-672.8331298828125	-810.1826171875	804.237548828125	-608.1099243164062	-1101.243286132812	1425.000122070312	-247.7841491699219	-1145.89501953125	1363.598876953125	-182.8404998779297	-1148.744384765625	1077.6953125	-119.6647567749023	-1187.535888671875	1058.758544921875	-171.9643707275391	-1031.6767578125	880.6876831054688	-130.3426666259766	-1110.74462890625	862.7416381835938	-94.09340667724609	-1145.632080078125	1019.494934082031	-108.3052062988281	-1026.99365234375	721.4489135742188	-119.0585632324219	-1017.25	781.4558715820312	-111.8131103515625	-1089.591674804688	777.0563354492188	-88.90711975097656	-1069.6787109375	1645.803100585938	-322.0098266601562	-875.876708984375	1664.578491210938	-393.0449829101562	-939.6974487304688	1665.513427734375	-278.7975158691406	-997.2044067382812	1648.930541992188	-484.7819519042969	-937.7409057617188	858.4136962890625	-564.8623046875	-1147.088989257812	864.7791137695312	-227.3571319580078	-1022.39404296875	901.1212768554688	-226.9141998291016	-884.2491455078125	893.0396118164062	-446.30859375	-984.9317626953125	438.3462219238281	-541.21826171875	-940.1687622070312	587.44970703125	-545.31396484375	-1061.452514648438	33.51152420043945	-572.345947265625	-995.0532836914062	288.9483337402344	-555.2945556640625	-902.0565795898438	45.31015014648438	-400.7534790039062	-980.7476196289062	50.14188385009766	-412.3692016601562	-925.2238159179688	45.64469909667969	-511.9478759765625	-1133.972290039062	38.00917053222656	-557.4921264648438	-1135.356201171875	466.2054443359375	-254.2334594726562	-1119.40283203125	727.1712646484375	-202.0179748535156	-1178.162841796875	43.06106185913086	-283.577880859375	-1148.479858398438	322.5125122070312	-247.2522125244141	-964.8161010742188	49.62523651123047	-241.3022155761719	-1007.298889160156	55.63138580322266	-296.8427124023438	-1068.6416015625	47.39048004150391	-205.4437713623047	-1220.047607421875	34.88577651977539	-351.8414001464844	
